PathFileType	4	(X/Y/Z)	C:\Users\WrightLab\Desktop\Jo\P5V127.trc
DataRate	CameraRate	NumFrames	NumMarkers	Units	OrigDataRate	OrigDataStartFrame	OrigNumFrames
100.00	100.00	       80	19	mm	100.00	557	       636
Frame#	Time	Headset_Front			Headset_Back			Headset_Left			Headset_Right			Left_Shoulder			Right_Shoulder			Sternum			C7			Left Elbow			Right Elbow			Left Wrist			Right Wrist			Left ASIS			Right ASIS			S2			Left Knee			Right Knee			Left Ankle			Right Ankle			
		X1	Y1	Z1	X2	Y2	Z2	X3	Y3	Z3	X4	Y4	Z4	X5	Y5	Z5	X6	Y6	Z6	X7	Y7	Z7	X8	Y8	Z8	X9	Y9	Z9	X10	Y10	Z10	X11	Y11	Z11	X12	Y12	Z12	X13	Y13	Z13	X14	Y14	Z14	X15	Y15	Z15	X16	Y16	Z16	X17	Y17	Z17	X18	Y18	Z18	X19	Y19	Z19	

557	5.560																															-381.88382	1094.49731	1700.81848													-343.18253	551.33630	1847.20154										
558	5.570																															-378.98776	1094.12927	1700.94580													-344.94724	546.64679	1847.73779										
559	5.580																															-376.59253	1093.61255	1699.85193													-346.80164	543.47382	1846.32764										
560	5.590																															-373.42377	1093.02917	1699.55249													-348.84241	539.42279	1844.38306										
561	5.600																															-370.15073	1092.04822	1698.14978													-349.89240	535.81372	1844.42273										
562	5.610																															-366.73175	1091.28113	1697.17322													-351.07132	532.06970	1846.96350										
563	5.620																															-363.37219	1090.43701	1696.03906													-349.69052	530.43335	1846.72412										
564	5.630																															-359.41266	1089.92859	1695.82263													-348.77338	529.36133	1848.05530										
565	5.640																															-356.10129	1089.18530	1694.81299													-347.22833	529.54163	1850.98083										
566	5.650																															-352.58069	1088.83508	1694.55127													-345.56763	532.38977	1851.72437										
567	5.660																															-349.10275	1088.79797	1692.96985													-343.64117	534.65710	1851.60815										
568	5.670																															-346.01596	1088.61157	1691.26563													-342.10370	536.61835	1853.09229										
569	5.680																															-342.44482	1088.88550	1689.97925													-340.38022	538.26569	1853.71936										
570	5.690																															-339.39227	1088.89392	1689.93372													-338.29465	539.46356	1852.73401										
571	5.700																															-336.40128	1088.96899	1689.95251													-336.73291	541.95667	1851.82617										
572	5.710																															-333.44867	1089.58008	1689.89355													-335.50177	542.15131	1852.62439										
573	5.720																															-330.37405	1090.01306	1689.42932													-334.36472	542.99542	1852.45215										
574	5.730																															-328.07007	1090.87598	1688.60388													-333.91074	543.64966	1852.51245										
575	5.740																															-324.88565	1091.50488	1688.32544													-333.74539	543.86963	1852.36353										
576	5.750																															-322.46976	1092.10498	1688.55688													-333.77548	544.37799	1850.73120										
577	5.760																															-320.00119	1093.35974	1687.24609													-334.29834	544.98212	1848.22424										
578	5.770																															-317.35455	1094.82910	1686.62085													-334.88788	544.81781	1846.64868										
579	5.780																															-315.00684	1096.21008	1685.16687													-335.52228	545.66064	1845.79053										
580	5.790																															-313.19092	1097.21924	1686.19617													-336.01917	546.05634	1843.43408										
581	5.800																																														-336.56454	545.66479	1841.86438										
582	5.810																																														-337.08701	545.60083	1839.93872										
583	5.820																																														-337.73163	545.34894	1838.48132										
584	5.830																																														-339.13254	545.29340	1836.27844										
585	5.840																																														-341.44849	544.79773	1834.32971										
586	5.850																																														-343.33295	543.58051	1834.14648										
587	5.860																																														-344.21677	544.52667	1829.66724										
588	5.870																																														-344.26401	546.58386	1825.37244										
589	5.880																																														-343.76590	546.72968	1824.89185										
590	5.890																																														-342.18079	547.12091	1819.74036										
591	5.900																																														-339.71695	547.63629	1817.58618										
592	5.910																																														-337.55103	549.03577	1817.16467										
593	5.920																																														-334.54343	548.93243	1817.26172										
594	5.930																																														-331.75540	549.45264	1815.98340										
595	5.940																																														-330.13928	550.03137	1816.05200										
596	5.950																																														-329.88382	550.90070	1814.70190										
597	5.960																																														-330.43347	551.20447	1815.60852										
598	5.970																																														-332.28137	551.31854	1816.34778										
599	5.980																																														-333.88174	551.17175	1817.36951										
600	5.990																																														-335.28088	550.75854	1818.71985										
601	6.000																																														-338.05954	550.72693	1820.39160										
602	6.010																																														-339.69479	550.72937	1821.77197										
603	6.020																																														-341.25064	550.63092	1823.64124										
604	6.030																																														-342.87241	549.84277	1828.28967										
605	6.040																																														-343.82498	550.45233	1831.72449										
606	6.050																																														-344.27029	549.67822	1834.11877										
607	6.060																																														-344.62082	549.95245	1837.99268										
608	6.070																																														-344.22925	549.92908	1842.03101										
609	6.080																																														-344.06339	549.35986	1845.70825										
610	6.090																																														-343.18716	548.63104	1850.52979										
611	6.100																																														-341.99628	548.91339	1856.30786										
612	6.110																																														-340.31601	550.15131	1856.71130										
613	6.120																																														-338.50626	549.87500	1861.66125										
614	6.130																																														-337.40109	549.96600	1863.38159										
615	6.140																																														-336.39572	548.33936	1870.92688										
616	6.150																																														-335.91788	549.20319	1875.14819										
617	6.160																																														-335.28571	549.46582	1877.25635										
618	6.170																																														-334.89627	549.80341	1882.93286										
619	6.180																																														-334.46448	549.92542	1885.73572										
620	6.190																																														-334.61829	550.68561	1890.85254										
621	6.200																																														-334.38245	550.77606	1895.13928										
622	6.210																																														-334.63657	549.83881	1901.16272										
623	6.220																																														-335.08209	549.65356	1906.23193										
624	6.230																																														-335.43787	550.38495	1910.02979										
625	6.240																																														-334.82040	549.95459	1913.78003										
626	6.250																																														-334.59589	550.83734	1918.06567										
627	6.260																																														-334.33890	550.79285	1923.99243										
628	6.270																																														-333.53488	551.51898	1927.75012										
629	6.280																																														-333.06863	552.61139	1933.13123										
630	6.290																																														-332.13205	552.68109	1938.60327										
631	6.300																																														-331.97894	555.08545	1940.66602										
632	6.310																																														-330.86758	555.43469	1946.41235										
633	6.320																																														-330.21085	555.36389	1954.52808										
634	6.330																																														-330.22488	557.14423	1958.22131										
635	6.340																																														-330.05325	557.88538	1964.98633										
636	6.350																																														-329.70532	558.15509	1973.29602										
